<svg width="111" height="24" viewBox="0 0 111 24" xmlns="http://www.w3.org/2000/svg"><title>cc-by-nc-nd</title><g fill="none" fill-rule="evenodd"><g transform="translate(29)"><circle fill="#FFF" cx="12.051" cy="12.113" r="10.44"/><path d="M11.979.185c3.319 0 6.118 1.139 8.397 3.418 2.292 2.293 3.44 5.092 3.44 8.397 0 3.32-1.126 6.083-3.377 8.291-2.391 2.35-5.211 3.524-8.46 3.524-3.194 0-5.964-1.16-8.313-3.481C1.346 18.013.185 15.235.185 12c0-3.235 1.16-6.034 3.481-8.397C5.945 1.323 8.716.185 11.98.185zm.042 2.13c-2.686 0-4.958.943-6.815 2.828C3.28 7.113 2.316 9.398 2.316 12c0 2.617.956 4.882 2.868 6.793 1.913 1.914 4.192 2.87 6.836 2.87 2.63 0 4.924-.963 6.879-2.89 1.857-1.787 2.785-4.044 2.785-6.773 0-2.687-.943-4.972-2.827-6.857-1.885-1.885-4.163-2.827-6.836-2.827zm3.165 6.752V13.9h-1.35v5.738h-3.671V13.9h-1.35V9.067c0-.211.073-.39.22-.538a.735.735 0 0 1 .539-.221h4.853c.197 0 .373.074.527.221a.719.719 0 0 1 .232.538zM10.354 6.03c0-1.11.548-1.667 1.646-1.667 1.098 0 1.646.556 1.646 1.667 0 1.097-.549 1.646-1.646 1.646s-1.646-.549-1.646-1.646z" fill="#000"/></g><circle fill="#FFF" cx="12.105" cy="12" r="10.647"/><path d="M11.978.185c3.305 0 6.12 1.153 8.44 3.46a11.363 11.363 0 0 1 2.532 3.808A12.03 12.03 0 0 1 23.815 12c0 1.618-.285 3.133-.854 4.546a10.847 10.847 0 0 1-2.521 3.745 12.142 12.142 0 0 1-3.925 2.617 11.762 11.762 0 0 1-4.536.907c-1.561 0-3.056-.298-4.484-.897a11.885 11.885 0 0 1-3.84-2.594 11.768 11.768 0 0 1-2.584-3.83A11.587 11.587 0 0 1 .185 12c0-1.561.298-3.063.896-4.505a11.864 11.864 0 0 1 2.606-3.871C5.937 1.33 8.7.184 11.978.184zm.043 2.13c-2.7 0-4.972.943-6.815 2.828-.929.943-1.643 2-2.142 3.175A9.306 9.306 0 0 0 2.315 12c0 1.266.25 2.487.75 3.66a9.788 9.788 0 0 0 2.14 3.145 9.737 9.737 0 0 0 3.145 2.11 9.472 9.472 0 0 0 3.671.728 9.537 9.537 0 0 0 3.682-.738 10.205 10.205 0 0 0 3.217-2.131c1.843-1.8 2.764-4.058 2.764-6.773a9.71 9.71 0 0 0-.718-3.714 9.447 9.447 0 0 0-2.087-3.123c-1.9-1.899-4.185-2.848-6.858-2.848zm-.148 7.723l-1.583.823c-.169-.35-.376-.597-.622-.738-.246-.14-.475-.211-.686-.211-1.055 0-1.583.696-1.583 2.089 0 .633.134 1.138.401 1.518.267.38.661.57 1.182.57.69 0 1.174-.337 1.456-1.012l1.456.738a3.471 3.471 0 0 1-3.102 1.857c-1.055 0-1.906-.323-2.553-.97-.647-.648-.97-1.548-.97-2.7 0-1.126.327-2.02.98-2.68.655-.661 1.48-.992 2.48-.992 1.463 0 2.51.569 3.144 1.708zm6.815 0l-1.562.823c-.168-.35-.376-.597-.622-.738a1.435 1.435 0 0 0-.707-.211c-1.055 0-1.583.696-1.583 2.089 0 .633.134 1.138.401 1.518.267.38.66.57 1.182.57.689 0 1.174-.337 1.455-1.012l1.477.738a3.627 3.627 0 0 1-1.307 1.361 3.41 3.41 0 0 1-1.794.496c-1.069 0-1.923-.323-2.562-.97-.641-.648-.961-1.548-.961-2.7 0-1.126.327-2.02.981-2.68.654-.661 1.48-.992 2.479-.992 1.463 0 2.504.569 3.123 1.708z" fill="#000"/><g transform="translate(87)"><circle fill="#FFF" cx="12.024" cy="11.922" r="10.712"/><path d="M11.979.185c3.305 0 6.104 1.146 8.397 3.439 2.292 2.279 3.44 5.07 3.44 8.376 0 3.306-1.126 6.076-3.377 8.313-2.377 2.335-5.198 3.502-8.46 3.502-3.194 0-5.964-1.16-8.313-3.481C1.346 18.014.185 15.236.185 12c0-3.22 1.16-6.013 3.481-8.376C5.96 1.331 8.73.184 11.98.184zm.042 2.13c-2.686 0-4.958.95-6.815 2.85C3.28 7.12 2.316 9.397 2.316 12c0 2.63.956 4.895 2.868 6.794 1.913 1.913 4.192 2.87 6.836 2.87 2.63 0 4.924-.964 6.879-2.891 1.857-1.8 2.785-4.058 2.785-6.773 0-2.7-.943-4.98-2.827-6.836-1.87-1.9-4.15-2.848-6.836-2.848zm4.452 6.9v2.025H7.886V9.215h8.587zm0 3.798v2.024H7.886v-2.024h8.587z" fill="#000"/></g><g transform="translate(58)"><circle fill="#FFF" cx="11.989" cy="12.087" r="10.882"/><path d="M11.979.185c3.319 0 6.118 1.139 8.397 3.417 2.292 2.28 3.44 5.078 3.44 8.398 0 3.32-1.126 6.083-3.377 8.292-2.391 2.35-5.212 3.523-8.46 3.523-3.208 0-5.978-1.167-8.313-3.502C1.346 17.992.185 15.222.185 12c0-3.235 1.16-6.034 3.481-8.397C5.945 1.324 8.716.185 11.98.185zm-9.136 8.63c-.351.97-.528 2.032-.528 3.185 0 2.617.957 4.882 2.87 6.794 1.926 1.9 4.205 2.849 6.835 2.849 2.66 0 4.951-.963 6.88-2.89.688-.662 1.23-1.351 1.623-2.07l-4.451-1.982a3.045 3.045 0 0 1-1.13 1.824c-.598.471-1.304.743-2.12.813v1.814H11.45v-1.814c-1.309-.014-2.505-.485-3.587-1.413l1.624-1.646c.774.717 1.653 1.075 2.638 1.075.408 0 .756-.09 1.045-.274.288-.182.433-.484.433-.907a.904.904 0 0 0-.317-.717l-1.14-.486-1.392-.633-1.878-.823-6.034-2.7zm9.178-6.52c-2.686 0-4.958.949-6.815 2.848-.464.464-.9.991-1.308 1.583L8.413 8.75a2.768 2.768 0 0 1 1.119-1.487c.548-.373 1.188-.58 1.92-.623V4.826h1.371v1.815a5.225 5.225 0 0 1 2.954 1.097l-1.54 1.582c-.662-.464-1.336-.696-2.026-.696-.366 0-.692.071-.98.211-.289.141-.433.38-.433.718 0 .098.035.197.105.295l1.498.676 1.034.464 1.9.844 6.053 2.7c.198-.83.296-1.674.296-2.532 0-2.715-.942-5-2.827-6.857-1.87-1.9-4.15-2.849-6.836-2.849z" fill="#000"/></g></g></svg>